<?xml version="1.0" encoding="utf-8"?>
<svg viewBox="0 0 750 1024" xmlns="http://www.w3.org/2000/svg">
	<path
		opacity="1.000000"
		stroke="none"
		d="M 61.55 471.347 C 27.195 444.155 11.892 408.519 13.992 365.725 C 16.784 308.786 59.463 261.852 115.939 252.641 C 130.581 250.252 145.395 250.151 160.052 252.993 C 164.057 253.768 166.281 252.653 168.499 249.215 C 191.384 213.71 224.036 192.861 265.372 185.203 C 275.156 183.392 285.002 182.731 294.96 182.749 C 349.667 182.855 404.374 182.69 459.082 182.83 C 510.531 182.961 550.527 205.35 580.454 246.481 C 584.256 251.705 587.451 253.566 594.34 252.485 C 631.353 246.682 664.073 257.006 692.535 281.006 C 716.358 301.098 730.407 326.93 733.874 357.739 C 738.425 398.182 726.248 433.198 697.013 462.057 C 673.503 485.265 644.809 495.138 612.414 495.971 C 610.389 496.023 608.356 496.088 606.337 495.958 C 601.095 495.622 599.058 498.124 599.119 503.23 C 599.238 512.744 598.814 522.243 596.977 531.615 C 591.915 557.475 568.358 578.827 542.113 581.122 C 527.509 582.4 512.919 583.747 500.596 592.751 C 492.757 598.479 485.354 604.804 477.722 610.819 C 463.065 622.37 446.723 630.73 428.793 635.775 C 423.052 637.389 421.749 640.751 422 646.085 C 422.42 654.942 422.584 663.825 422.468 672.693 C 422.366 680.547 419.596 683.017 411.631 683.301 C 398.231 683.78 398.324 683.78 398.33 697.059 C 398.377 786.817 398.379 876.574 398.396 966.333 C 398.397 972.172 398.396 978.012 398.396 984.488 C 387.292 986.007 377.561 981.956 369.075 975.099 C 355.266 963.943 349.114 949.465 349.935 931.386 C 350.837 911.592 350.433 891.732 350.372 871.902 C 350.203 814.568 349.917 757.235 349.688 699.902 C 349.68 697.877 349.752 695.849 349.853 693.827 C 350.319 684.679 349.097 683.408 339.683 683.319 C 337.861 683.303 336.036 683.282 334.212 683.307 C 328.646 683.384 326.124 680.689 326.189 675.09 C 326.315 664.557 326.148 654.017 326.248 643.484 C 326.28 640.102 325.569 637.561 321.902 636.528 C 296.56 629.403 275.186 615.339 255.825 598.027 C 243.031 586.588 227.724 582.346 211.238 581.287 C 175.841 579.01 151.3 553.139 151.054 517.673 C 151.019 512.621 150.105 507.573 150.162 502.532 C 150.223 497.171 147.947 495.433 142.78 495.764 C 125.806 496.85 109.26 494.537 93.262 488.683 C 81.966 484.55 71.504 478.858 61.55 471.347 M 253.269 466.127 C 264.784 473.168 270.538 482.957 269.77 496.921 C 269.034 510.257 269.729 523.666 269.459 537.036 C 269.355 542.111 270.746 544.266 276.258 544.239 C 315.366 544.052 354.475 544.069 393.583 544.146 C 420.117 544.198 446.662 543.559 473.179 544.995 C 478.055 545.259 479.566 543.191 479.515 538.581 C 479.355 523.587 479.478 508.59 479.433 493.595 C 479.397 481.562 484.26 472.576 495.225 467.015 C 500.635 464.271 506.137 461.497 511.009 457.935 C 545.067 433.04 563.453 399.367 564.398 357.224 C 565.303 316.713 549.43 283.646 516.416 259.424 C 477.558 230.913 422.432 232.746 385.61 263.681 C 378.154 269.945 374.919 269.911 367.046 263.488 C 326.56 230.465 264.905 231.405 225.891 265.645 C 179.174 306.642 171.419 378.61 208.214 428.672 C 219.975 444.668 234.691 456.995 253.269 466.127 M 313.491 587.166 C 368.006 614.471 433.19 599.248 461.257 569.345 C 403.778 569.345 346.52 569.345 287.833 569.345 C 295.818 577.33 304.343 581.912 313.491 587.166 M 605.662 411.543 C 612.118 411.916 618.053 410.153 623.718 407.201 C 639.167 399.15 647.597 382.584 644.497 366.313 C 641.521 350.7 626.882 336.877 611.774 335.412 C 604.578 334.714 603.123 335.912 603.092 343.268 C 603.004 363.709 603.009 384.149 603.046 404.589 C 603.049 406.93 602.539 409.523 605.662 411.543 M 144.597 383.38 C 144.699 369.03 144.764 354.682 144.925 340.333 C 144.985 335.057 142.267 333.502 137.553 334.556 C 130.982 336.026 124.846 338.545 119.273 342.396 C 107.389 350.607 101.443 366.585 104.717 381.64 C 107.588 394.834 121.565 409.018 134.026 411.381 C 141.582 412.814 145.037 409.819 144.868 401.985 C 144.741 396.13 144.616 390.273 144.597 383.38 Z"
		style="fill: #dbd38f; transform-origin: 374.302px 583.777px"
	/>
	<path
		opacity="1.000000"
		stroke="none"
		d="M 211.467 121.605 C 173.183 145.67 141.214 175.888 116.593 213.21 C 109.062 224.626 100.556 231.746 87.591 235.514 C 72.333 239.948 58.873 248.491 46.068 257.88 C 43.663 259.642 41.273 261.42 38.224 262.643 C 56.228 217.132 80.593 175.676 114.742 140.427 C 178.059 75.065 254.547 35.818 345.636 28.656 C 446.841 20.699 535.751 51.946 611.82 118.889 C 656.653 158.344 688.422 207.077 710.364 262.661 C 707.442 263.373 706.379 261.602 705.065 260.502 C 689.324 247.294 671.614 237.721 651.845 232.174 C 645.242 230.325 640.545 226.965 636.821 221.044 C 605.676 171.517 563.928 133.503 511.68 107.145 C 485.684 94.033 458.33 85.016 429.658 79.618 C 409.666 75.857 389.57 73.683 369.335 74.308 C 312.745 76.054 260.008 91.194 211.467 121.605 Z"
		style="fill: #dbd38f; transform-origin: 374.294px 145.133px"
	/>
	<path
		opacity="1.000000"
		stroke="none"
		d="M 429.577 698.406 C 436.742 689.262 445.705 684.649 456.655 681.832 C 495.428 671.863 529.988 653.214 561.484 628.649 C 599.485 599.01 629.276 562.742 650.284 519.338 C 651.616 516.587 653.353 514.829 656.259 513.841 C 678.082 506.413 697.229 494.631 713.59 478.354 C 713.828 478.118 714.335 478.152 714.842 478.029 C 716.726 479.589 715.366 481.291 714.911 482.865 C 699.668 535.52 673.061 581.795 636.332 622.33 C 591.388 671.929 537.183 707.024 472.931 726.307 C 458.571 730.616 443.823 733.206 429.199 736.359 C 424.101 737.46 422.016 735.706 422.272 730.509 C 422.49 726.064 422.684 721.556 422.202 717.152 C 421.382 709.663 423.827 703.68 429.577 698.406 Z"
		style="fill: #dbd38f; transform-origin: 568.93px 607.351px"
	/>
	<path
		opacity="1.000000"
		stroke="none"
		d="M 77.383 507.643 C 92.056 510.85 99.22 520.491 105.855 533.092 C 131.111 581.066 167.732 618.813 213.709 647.576 C 241.595 665.022 271.42 677.691 303.433 685.201 C 307.083 686.057 308.848 689.254 311.572 691.217 C 324.07 700.221 328.018 712.365 325.712 727.128 C 325.251 730.078 326.171 733.181 324.566 737.1 C 260.803 727.756 203.636 703.104 153.678 662.274 C 94.55 613.946 54.483 552.874 33.437 479.242 C 47.141 490.17 60.595 501.049 77.383 507.643 Z"
		style="fill: #dbd38f; transform-origin: 179.886px 608.171px"
	/>
	<path
		opacity="1.000000"
		stroke="none"
		d="M 322.62 426.59 C 311.485 428.363 300.756 428.318 290.14 426.793 C 283.674 425.867 282.451 420.584 282.471 414.842 C 282.562 386.679 282.595 358.519 282.616 330.356 C 282.622 320.631 282.443 310.906 282.512 301.185 C 282.578 292.048 285.958 288.678 294.989 288.582 C 302.283 288.501 309.576 288.533 316.87 288.576 C 325.361 288.624 328.134 291.345 328.141 299.89 C 328.171 333.119 328.136 366.344 328.127 399.571 C 328.126 405.043 328.072 410.512 328.163 415.981 C 328.238 420.354 326.817 423.906 322.62 426.59 Z"
		style="fill: #dbd38f; transform-origin: 305.318px 358.23px"
	/>
	<path
		opacity="1.000000"
		stroke="none"
		d="M 485.073 336.61 C 485.067 350.961 485.088 364.736 485.043 378.51 C 485.016 386.97 482.988 389.013 474.751 389.026 C 462.598 389.043 450.445 389.065 438.292 389.021 C 430.956 388.995 428.39 386.524 428.351 379.191 C 428.272 364.405 428.292 349.616 428.362 334.829 C 428.394 327.926 431.002 325.242 437.866 325.177 C 450.018 325.062 462.17 325.06 474.32 325.131 C 482.837 325.181 484.83 327.296 485.073 336.61 Z"
		style="fill: #dbd38f; transform-origin: 456.687px 357.065px"
	/>
	<path
		opacity="1.000000"
		stroke="none"
		d="M 340.189 505.322 C 334.301 504.652 332.068 501.653 332.251 496.234 C 332.489 489.176 332.201 482.1 332.346 475.037 C 332.473 469.001 335.345 466.407 341.511 466.33 C 348.184 466.246 351.064 468.723 351.207 475.043 C 351.349 481.299 351.26 487.561 351.231 493.821 C 351.187 503.464 350.329 504.388 340.189 505.322 Z"
		style="fill: #dbd38f; transform-origin: 341.763px 485.825px"
	/>
	<path
		opacity="1.000000"
		stroke="none"
		d="M 400.886 469.309 C 403.962 466.363 407.383 466.086 410.848 466.282 C 415.346 466.534 418.058 468.95 418.117 473.548 C 418.221 481.828 418.199 490.115 418.009 498.394 C 417.903 503.027 414.992 505.373 410.569 505.512 C 406.007 505.655 400.724 505.28 400.033 499.725 C 398.797 489.773 398.107 479.675 400.886 469.309 Z"
		style="fill: #dbd38f; transform-origin: 408.566px 485.884px"
	/>
</svg>
