<?xml version="1.0" encoding="utf-8"?>
<svg viewBox="0 0 1024 1024" xmlns="http://www.w3.org/2000/svg">
	<path
		opacity="1.000000"
		stroke="none"
		d=" M398.466675,775.558350 C364.168976,745.913391 343.470795,709.131531 337.668610,664.409668 C334.704926,641.566345 335.619659,618.518555 335.848938,595.555359 C335.921600,588.279480 333.877045,582.575256 329.624054,576.788330 C317.122467,559.777527 307.551727,541.110962 300.837921,521.092834 C299.256683,516.378174 296.892822,514.949402 292.167480,515.228149 C277.928192,516.068054 263.970551,515.080933 250.638321,509.045593 C217.879196,494.216034 198.421722,458.626434 203.327179,423.333374 C206.779541,398.494873 218.904892,379.177124 239.274323,365.331818 C257.631012,352.854584 278.348175,350.039062 300.022308,354.028870 C307.191467,355.348541 307.552155,355.290466 310.823273,348.723511 C330.885315,308.447662 360.448364,276.949188 398.673859,253.382797 C412.350952,244.950745 426.768280,238.124649 441.974579,233.061707 C452.747772,229.474762 462.183411,223.638321 471.130768,216.928055 C484.187592,207.135727 497.199127,197.271561 509.941956,187.078003 C514.572998,183.373367 519.442627,184.742462 524.236938,185.037842 C526.861450,185.199554 526.363708,188.188782 526.002380,190.010391 C524.885864,195.638641 525.566650,201.314728 525.206177,206.954865 C524.932251,211.239929 526.911804,213.014343 531.216187,212.709946 C548.548157,211.484268 565.743408,214.004013 583.003296,214.772003 C586.525696,214.928741 587.499573,216.593658 586.013855,220.106476 C581.324036,231.194901 581.410095,231.273544 592.571411,235.920975 C642.360840,256.652618 681.129822,290.111206 708.658813,336.509064 C711.459106,341.228790 713.922302,346.164673 716.282837,351.123535 C717.931946,354.587708 720.148865,355.424805 723.862610,354.530731 C765.649963,344.470612 804.284790,368.633972 817.699402,403.166840 C835.797913,449.757172 809.591614,501.617859 762.074829,513.629761 C752.426514,516.068848 742.724731,516.913086 732.886719,515.528137 C728.914856,514.969055 726.606262,516.289246 725.323730,520.114929 C717.632080,543.058044 706.281921,564.063477 691.520935,583.222473 C690.030518,585.156921 690.237671,587.265686 690.237122,589.409912 C690.232239,608.072449 690.527771,626.740479 690.175476,645.396301 C689.398254,686.562134 675.399719,722.800659 648.742676,754.165222 C619.642212,788.404602 582.473999,808.399414 538.352478,814.934753 C491.066864,821.938782 447.837097,810.580383 408.712708,783.304199 C405.300323,780.925232 402.061646,778.297058 398.466675,775.558350 M581.518555,342.371948 C552.156250,345.796936 529.572021,360.360962 513.129578,385.019318 C480.636017,331.546783 412.282654,332.921631 377.636627,365.323303 C346.484863,394.457031 338.486084,444.785492 365.710632,482.644684 C379.387909,501.664734 397.677368,514.543152 420.953979,518.326599 C460.623199,524.774414 490.843689,508.803497 513.155640,475.799774 C514.578308,477.817993 515.358765,478.879486 516.092102,479.972565 C524.915527,493.123932 536.336487,503.660980 550.502991,510.452087 C583.950806,526.486206 615.654541,522.433533 644.455139,499.387207 C684.534119,467.315887 687.572144,407.403595 652.929504,369.982147 C634.008301,349.543213 610.093750,340.793610 581.518555,342.371948 M399.364197,683.141174 C406.822510,702.057922 417.878082,718.424377 433.451233,731.664185 C450.331268,746.015015 469.764069,754.908386 491.429718,759.051636 C503.457733,761.351807 515.558716,761.328552 527.685974,759.776184 C560.580505,755.565247 587.907349,740.967285 608.496826,714.958496 C625.768066,693.141357 634.608826,668.117859 634.043091,639.966370 C633.799255,627.830872 633.585449,615.673157 634.537964,603.535339 C634.912292,598.764954 633.244202,597.344238 627.895142,597.345581 C589.801575,597.355286 551.708008,597.392090 513.614441,597.399841 C475.314972,597.407654 437.015503,597.401855 398.716034,597.376892 C392.192230,597.372620 391.276978,598.177368 391.372925,604.928162 C391.550385,617.413269 392.173798,629.902954 391.964172,642.379822 C391.731018,656.256897 394.256439,669.504517 399.364197,683.141174 M768.210388,415.431671 C781.498657,435.635559 769.973694,461.141663 748.300537,465.991821 C744.642700,466.810394 739.539551,463.906433 737.494202,468.510254 C735.866211,472.174683 736.000488,476.624023 735.368774,480.727448 C735.242310,481.549255 735.262878,482.398071 735.089722,483.207489 C734.556519,485.699493 735.872742,486.662201 738.060669,486.639496 C742.380127,486.594727 746.822449,487.019409 750.996643,486.175354 C778.443115,480.625092 797.295288,454.572723 793.470520,427.233582 C789.791077,400.932953 767.740112,379.567902 738.551575,381.036652 C730.951355,381.419098 729.682312,382.895020 731.312744,390.117920 C731.678955,391.740417 732.221375,393.331940 732.472168,394.969940 C733.122375,399.215729 735.118164,400.970673 739.791504,401.054382 C751.118164,401.257446 760.950256,405.188019 768.210388,415.431671 M265.143829,407.519836 C270.010956,404.110443 275.508209,400.994965 281.263794,401.510010 C291.121002,402.392151 293.229370,396.465607 294.618439,389.059296 C294.649139,388.895599 294.677948,388.731445 294.713806,388.568848 C295.692719,384.131439 294.131592,381.852753 289.666199,381.395111 C278.017761,380.201355 267.122375,382.545288 257.171173,388.743652 C236.194565,401.809387 226.880569,429.503876 235.527496,452.617371 C243.427231,473.733643 262.047363,485.420685 279.722809,486.612549 C290.642517,487.348907 290.667511,486.973694 289.764160,475.976196 C289.736908,475.644440 289.739166,475.310364 289.717468,474.978058 C289.311127,468.749664 287.707581,467.027802 281.705841,466.372528 C266.930603,464.759369 257.190063,457.095673 253.429398,442.892609 C249.787750,429.139130 253.491302,417.256287 265.143829,407.519836 M521.040405,541.276245 C519.574219,540.984619 518.116150,540.641785 516.640625,540.409302 C503.680389,538.367371 490.872009,546.482605 487.790741,558.669312 C485.887451,566.196960 488.354614,573.619812 493.626099,576.225708 C498.953247,578.859253 503.324493,576.438354 503.814453,570.583252 C504.383026,563.788818 507.823151,559.773865 513.108215,559.736572 C518.369263,559.699524 521.797180,563.613525 522.314697,570.455750 C522.534180,573.357300 523.575806,575.714172 526.361389,576.749390 C529.598694,577.952454 532.651611,577.208374 535.070923,574.747375 C537.353516,572.425476 538.499634,569.536560 538.754456,566.246704 C539.613892,555.150818 533.999329,546.874146 521.040405,541.276245 z"
		style="fill: 	#7d12ff"
		filter="drop-shadow(0px 0px 30px 	#7d12ff)"
	/>
	<path
		opacity="1.000000"
		stroke="none"
		d=" M62.214787,635.641968 C54.742382,615.394043 48.835690,595.083801 45.484558,574.164124 C39.714951,538.146729 38.608471,502.011688 43.408546,465.721954 C50.020157,415.736542 66.864487,369.461212 93.632935,326.886902 C114.812927,293.200897 141.056641,263.937744 172.447464,239.280304 C215.772781,205.248337 264.640991,183.847305 318.689087,173.945816 C323.261597,173.108139 327.870636,172.339966 332.497101,171.970734 C335.758636,171.710403 337.107635,170.246841 337.744934,167.181412 C338.992340,161.181564 341.715454,155.890961 346.344696,151.721832 C350.830414,147.681992 355.814575,145.267258 362.140900,145.560883 C368.114166,145.838135 374.135834,145.574081 380.109375,145.160431 C383.832458,144.902603 385.240875,146.108749 385.180206,149.858368 C385.013153,160.187607 385.222351,170.524033 384.977692,180.850403 C384.871399,185.335526 386.341705,186.952530 390.987305,186.867645 C405.481567,186.602753 419.983582,186.775772 434.482544,186.745728 C441.786255,186.730591 441.838501,186.751205 441.416260,193.798080 C440.789978,204.249985 440.789978,204.233536 430.401337,204.212524 C417.402435,204.186234 404.403473,204.173584 391.404572,204.188858 C385.272003,204.196075 384.983246,204.520447 384.996429,210.725067 C385.018036,220.889328 384.919220,231.056320 385.134918,241.216553 C385.229004,245.648514 383.835236,247.565674 379.104187,247.313751 C372.623291,246.968628 366.108734,247.314713 359.610870,247.215683 C349.923798,247.068054 342.478729,242.754349 338.386719,234.011246 C336.302795,229.558609 333.638062,228.847046 329.363434,229.528290 C296.730377,234.728973 266.333252,246.065353 237.860382,262.694397 C191.654022,289.680359 156.174744,327.003876 130.992355,374.131317 C113.470413,406.922638 102.361328,441.798462 98.251060,478.774170 C91.113998,542.978638 103.298225,603.380066 135.261337,659.520996 C163.496307,709.113770 203.691101,746.283691 254.503067,772.131226 C275.871002,783.000916 298.297333,790.659363 321.818604,795.172485 C323.283203,795.453430 324.848267,795.347351 326.251495,795.787903 C332.828033,797.852905 336.955353,796.493042 340.218750,789.506348 C343.218689,783.083801 350.034821,780.110779 357.247223,779.786255 C365.232513,779.426880 373.247772,779.772095 381.239624,779.502930 C385.147858,779.371277 385.051910,781.711121 385.057861,784.331848 C385.082123,794.996033 385.372467,805.668091 385.042297,816.320984 C384.890991,821.202026 387.217987,822.527222 391.245728,822.494019 C405.542969,822.376221 419.841034,822.252136 434.135773,821.974915 C440.860931,821.844543 441.307434,822.056396 441.208496,828.727112 C441.038086,840.212952 443.107574,839.353455 430.515472,839.298767 C417.183105,839.240967 403.847778,839.426575 390.519135,839.195435 C386.282379,839.122070 385.060455,840.614685 385.160034,844.682312 C385.400574,854.509521 385.256561,864.346130 385.273376,874.178955 C385.285034,881.013000 385.287842,881.033325 378.243683,881.094971 C373.911011,881.132812 369.577728,881.112366 365.244751,881.101440 C351.042053,881.065674 341.809479,874.961731 338.211884,861.417664 C336.515106,855.029663 333.802765,853.589233 327.566345,852.885132 C301.147919,849.902405 275.695618,842.785889 251.087540,832.713745 C207.401031,814.832825 169.680023,788.224792 136.956863,754.387207 C103.840027,720.142578 79.224831,680.508667 62.214787,635.641968 M360.567352,817.551025 C360.044281,810.304626 361.739288,802.866943 359.555084,795.680847 C355.584625,796.188599 355.223663,798.429504 355.228119,800.903625 C355.261932,819.561279 355.254364,838.219238 355.383972,856.876282 C355.405212,859.936462 355.651886,863.140503 358.251526,865.294006 C359.469116,864.974609 360.036865,864.230713 360.094025,863.435852 C361.169617,848.480469 360.410522,833.503601 360.567352,817.551025 M355.260742,207.499771 C355.249969,213.489304 355.186493,219.479477 355.257355,225.468048 C355.281677,227.522522 354.782471,230.501968 357.875641,230.435394 C360.902039,230.370270 360.430634,227.349289 360.358948,225.353195 C359.666504,206.066483 359.772064,186.784500 360.363037,167.498566 C360.431427,165.266693 360.550507,162.895767 359.068420,160.728394 C355.409454,161.905838 355.284454,164.696381 355.283112,167.568146 C355.277069,180.545349 355.264404,193.522537 355.260742,207.499771 z"
		style="fill: 	gold"
		filter="drop-shadow(0px 0px 30px 	gold)"
	/>
	<path
		opacity="1.000000"
		stroke="none"
		d=" M717.069275,850.276855 C709.803772,851.763855 702.965942,853.258728 695.930359,853.346558 C691.766724,853.398560 689.332397,854.881531 688.362000,859.466614 C685.362061,873.640198 675.910034,880.992126 661.373657,881.114563 C656.207520,881.158142 651.038025,881.104675 645.876343,881.280396 C642.156616,881.406982 640.617920,879.736206 641.044495,876.152100 C642.291931,865.671936 640.265076,855.189880 641.079590,844.719360 C641.401306,840.583252 639.759155,839.202271 635.637085,839.269165 C620.643127,839.512634 605.642639,839.356445 590.648682,839.600342 C586.202576,839.672607 584.566772,838.321533 584.634094,833.643860 C584.825684,820.340088 583.760376,822.060242 596.071472,821.972473 C609.402466,821.877380 622.736450,821.804932 636.065186,821.996338 C640.401611,822.058594 641.933472,820.602905 641.825378,816.222839 C641.570496,805.895813 641.866455,795.555847 641.655762,785.226868 C641.573669,781.203613 642.772705,779.472961 647.028381,779.622681 C654.186035,779.874512 661.368408,779.460327 668.523254,779.749390 C677.315613,780.104736 684.413391,783.693176 687.856689,792.263977 C689.406860,796.122620 691.725769,797.055298 695.567078,796.508667 C735.250183,790.862244 770.860474,775.248108 803.948303,753.046936 C838.152283,730.096985 865.659973,700.777161 887.091003,665.843933 C905.710632,635.493530 918.218689,602.608215 924.701294,567.523071 C929.197571,543.188477 930.542114,518.725586 929.036621,493.968475 C927.426575,467.491364 922.157166,441.856873 913.571350,416.884430 C901.079895,380.552185 882.303406,347.813477 856.667603,319.073029 C821.184204,279.292358 778.047180,251.556320 726.902405,236.407822 C717.009705,233.477692 707.005493,230.935852 696.759949,229.487350 C693.221130,228.987045 690.818420,229.490021 688.824280,233.358322 C684.218689,242.292694 676.545349,247.168594 666.248352,247.285324 C659.749451,247.359009 653.239685,247.114120 646.753357,247.413971 C642.687622,247.601913 641.563110,246.000870 641.628784,242.182526 C641.797729,232.358124 641.618774,222.528275 641.651001,212.700836 C641.676453,204.929825 641.051147,204.267929 633.065308,204.273773 C618.565613,204.284393 604.063354,204.148117 589.567566,204.392151 C584.894104,204.470840 583.463379,202.798080 583.666443,198.275436 C584.217163,186.013077 581.430603,186.765839 595.179688,186.816971 C608.678650,186.867172 622.180054,186.709976 635.675964,186.923218 C640.043457,186.992233 641.683167,185.319107 641.642944,181.106995 C641.546082,170.941711 641.791138,160.770874 641.554077,150.610321 C641.454956,146.359512 642.605530,144.455643 647.163330,144.802338 C651.637085,145.142639 656.157104,144.882339 660.656799,144.873016 C675.645691,144.841949 684.401733,151.135086 688.169067,165.755356 C689.487488,170.871735 691.695923,172.328384 696.800354,172.982452 C763.282959,181.501343 820.889832,209.352631 870.658447,253.843567 C918.261658,296.398560 950.965698,348.635254 970.215820,409.298035 C977.978149,433.759583 982.410828,458.954437 984.437195,484.615082 C989.034851,542.836731 980.213135,598.823547 957.155029,652.469116 C941.887695,687.989075 920.850708,719.817505 894.687317,748.296692 C855.221924,791.255127 807.938538,822.199341 752.728027,841.005371 C741.214050,844.927246 729.400635,847.775330 717.069275,850.276855 M670.721008,181.503647 C670.703430,176.846054 670.766785,172.186234 670.638733,167.531677 C670.558289,164.602936 669.629272,162.146988 665.334106,161.395477 C665.772400,184.933685 664.678894,207.908798 665.892273,231.393448 C670.647644,229.657318 670.679932,226.794662 670.683105,223.923004 C670.698547,210.116104 670.710938,196.309204 670.721008,181.503647 M670.612671,807.599182 C670.212524,803.603882 672.062256,799.026733 667.947205,795.652527 C664.697083,799.995361 664.733337,861.565674 669.074951,865.791260 C671.980042,845.983948 670.144775,827.218445 670.612671,807.599182 z"
		style="fill: 	gold"
		filter="drop-shadow(0px 0px 30px 	gold)"
	/>
	<path
		opacity="1.000000"
		stroke="none"
		d=" M573.027466,423.000000 C573.032593,407.016205 572.985413,391.532257 573.050720,376.048737 C573.084106,368.129700 573.270996,368.055298 581.210022,368.015320 C587.868164,367.981781 594.541870,368.155151 601.178833,367.749176 C606.099915,367.448181 607.492615,369.361206 607.398010,374.058380 C607.156799,386.040924 607.496460,398.035065 607.264160,410.017975 C607.179993,414.360626 608.577698,416.023529 612.958069,415.833832 C618.940369,415.574799 624.944092,415.671661 630.934998,415.794586 C636.286377,415.904358 638.113770,417.795349 638.227844,423.070038 C638.310608,426.897766 638.326660,430.729828 638.249268,434.557434 C638.142212,439.849243 636.173828,442.324127 630.833679,442.644562 C625.546936,442.961792 620.213501,442.409515 614.900208,442.398956 C608.466858,442.386169 607.366760,443.527557 607.358582,449.986511 C607.342590,462.639984 607.267883,475.295074 607.450745,487.946136 C607.509705,492.027893 606.107666,493.501953 601.962769,493.393341 C592.690186,493.150360 583.406799,493.317352 573.691162,493.317352 C572.804321,469.641174 573.013123,446.568970 573.027466,423.000000 z"
		style="fill: white"
		filter="drop-shadow(0px 0px 30px 	white)"
	/>
	<path
		opacity="1.000000"
		stroke="none"
		d=" M418.333130,477.412903 C418.391968,442.343353 418.541595,407.695129 418.538208,373.046936 C418.537842,369.342163 419.897705,367.963898 423.463196,367.981720 C431.625916,368.022583 439.790314,367.952911 447.952301,367.821533 C451.336700,367.767029 452.526459,369.060608 452.534302,372.591797 C452.605560,404.735657 452.944214,436.878967 452.988922,469.022766 C452.998169,475.663391 452.504272,482.307281 452.902435,488.956512 C453.088715,492.067169 451.739960,493.416290 448.469299,493.369507 C439.807739,493.245667 431.140869,493.285248 422.479858,493.453369 C419.694550,493.507446 418.861420,492.445587 418.405060,489.788910 C417.711945,485.753967 418.622437,481.811157 418.333130,477.412903 z"
		style="fill: white"
		filter="drop-shadow(0px 0px 30px white)"
	/>
	<path
		opacity="1.000000"
		stroke="none"
		d=" M467.308258,681.036743 C455.888977,681.128784 444.898804,681.241638 433.910370,681.147156 C427.900116,681.095459 424.688354,677.202515 424.743866,670.527405 C424.798828,663.916626 428.127014,659.809509 433.906860,659.731445 C443.896362,659.596558 453.889160,659.662170 463.880280,659.707092 C470.484344,659.736816 473.247498,661.786316 474.363647,667.282288 C475.762970,674.172668 473.763428,678.303833 467.308258,681.036743 z"
		style="fill: white"
		filter="drop-shadow(0px 0px 30px white)"
	/>
	<path
		opacity="1.000000"
		stroke="none"
		d=" M560.437134,681.272949 C553.270752,679.767395 550.804688,675.756470 551.734802,667.836609 C552.378418,662.355530 555.519043,659.728638 561.657349,659.700806 C571.297058,659.657104 580.938599,659.785522 590.576416,659.642273 C595.505920,659.568970 598.871887,661.432190 600.584961,666.143860 C602.188049,670.552856 600.933960,676.835144 597.879944,679.644714 C596.114319,681.268982 593.976562,681.290283 591.800720,681.289612 C581.496094,681.286438 571.191467,681.287231 560.437134,681.272949 z"
		style="fill: white"
		filter="drop-shadow(-0px 0px 30px white)"
	/>
</svg>
